<?xml version="1.0" encoding="utf-8"?>
<!-- Generator: Adobe Illustrator 16.2.1, SVG Export Plug-In . SVG Version: 6.00 Build 0)  -->
<!DOCTYPE svg PUBLIC "-//W3C//DTD SVG 1.1//EN" "http://www.w3.org/Graphics/SVG/1.1/DTD/svg11.dtd">
<svg version="1.1" id="Layer_1" xmlns="http://www.w3.org/2000/svg" xmlns:xlink="http://www.w3.org/1999/xlink" x="0px" y="0px"
	 width="42px" height="42px" viewBox="129 129 42 42" enable-background="new 129 129 42 42" xml:space="preserve">
<path d="M167.193,133.975h0.234c0.288,0,0.525-0.095,0.525-0.349c0-0.19-0.14-0.366-0.507-0.366c-0.114,0-0.192,0-0.253,0.008
	V133.975L167.193,133.975z M167.193,135.204h-0.393v-2.179c0.183-0.026,0.366-0.062,0.655-0.062c0.348,0,0.564,0.071,0.703,0.176
	c0.123,0.095,0.192,0.242,0.192,0.453c0,0.279-0.184,0.461-0.417,0.522v0.016c0.189,0.035,0.312,0.209,0.354,0.532
	c0.054,0.341,0.098,0.469,0.133,0.541h-0.401c-0.052-0.071-0.096-0.271-0.141-0.557c-0.041-0.263-0.189-0.368-0.461-0.368h-0.226
	V135.204L167.193,135.204z M167.552,132.441c-0.863,0-1.561,0.724-1.561,1.63c0,0.905,0.697,1.629,1.567,1.629
	c0.863,0.008,1.551-0.724,1.551-1.629c0-0.906-0.688-1.63-1.551-1.63H167.552z M167.559,132.11c1.078,0,1.941,0.872,1.941,1.952
	c0,1.098-0.863,1.968-1.948,1.968c-1.089,0-1.97-0.87-1.97-1.968c0-1.08,0.881-1.952,1.97-1.952H167.559z"/>
<path d="M139.447,167.047l-0.327-1.94c-0.093-0.558-0.211-1.431-0.303-2.035h-0.035c-0.097,0.609-0.229,1.508-0.327,2.042
	l-0.353,1.934H139.447z M137.926,168.309l-0.425,2.151h-1.571l1.958-8.723h1.926l1.78,8.723h-1.579l-0.416-2.151H137.926z"/>
<path d="M145.171,166.462c0-0.118,0-0.259-0.023-0.386c-0.062-0.442-0.298-0.841-0.676-0.841c-0.648,0-0.886,0.936-0.886,2.029
	c0,1.255,0.34,1.969,0.864,1.969c0.239,0,0.516-0.123,0.667-0.649c0.035-0.104,0.054-0.246,0.054-0.41V166.462z M146.784,161.5
	v7.104c0,0.582,0.03,1.296,0.053,1.854h-1.393l-0.091-0.744h-0.033c-0.233,0.459-0.742,0.85-1.352,0.85
	c-1.334,0-1.995-1.471-1.995-3.33c0-2.265,0.987-3.364,2.061-3.364c0.562,0,0.926,0.274,1.11,0.673h0.026V161.5H146.784
	L146.784,161.5z"/>
<path d="M150.143,169.328c0.616,0,0.768-1.161,0.768-2.122c0-0.912-0.152-2.103-0.795-2.103c-0.68,0-0.824,1.19-0.824,2.103
	c0,1.103,0.181,2.122,0.835,2.122H150.143z M150.111,170.563c-1.485,0-2.417-1.192-2.417-3.329c0-2.33,1.197-3.365,2.457-3.365
	c1.466,0,2.385,1.251,2.385,3.328c0,2.671-1.439,3.366-2.41,3.366H150.111z"/>
<path d="M155.049,168.144c0,0.162,0.029,0.313,0.064,0.415c0.162,0.542,0.436,0.675,0.656,0.675c0.622,0,0.874-0.79,0.874-2.054
	c0-1.151-0.266-1.944-0.882-1.944c-0.306,0-0.563,0.333-0.651,0.689c-0.032,0.112-0.062,0.287-0.062,0.407V168.144z M153.436,161.5
	h1.613v3.151h0.026c0.317-0.499,0.74-0.782,1.354-0.782c1.217,0,1.827,1.382,1.827,3.189c0,2.282-0.91,3.505-2.091,3.505
	c-0.562,0-0.938-0.249-1.274-0.88h-0.034l-0.091,0.774h-1.382c0.023-0.536,0.052-1.271,0.052-1.854V161.5L153.436,161.5z"/>
<path d="M162.121,166.599c0.009-0.911-0.259-1.549-0.771-1.549c-0.583,0-0.831,0.854-0.849,1.549H162.121z M160.495,167.738
	c0.02,1.173,0.636,1.554,1.4,1.554c0.485,0,0.902-0.105,1.209-0.222l0.219,1.16c-0.429,0.184-1.09,0.299-1.722,0.299
	c-1.731,0-2.677-1.182-2.677-3.202c0-2.167,1.097-3.469,2.529-3.469c1.384,0,2.149,1.149,2.149,3.028
	c0,0.431-0.018,0.672-0.047,0.861L160.495,167.738z"/>
<polygon points="152.5,131.5 163.5,131.5 163.5,157.5 "/>
<polygon points="146.5,131.5 135.5,131.5 135.5,157.5 "/>
<polygon points="149.656,140.5 156.229,157.498 151.923,157.498 149.957,151.5 145.145,151.5 "/>
</svg>
