<?xml version="1.0" encoding="utf-8"?>
<!-- Generator: Adobe Illustrator 16.2.1, SVG Export Plug-In . SVG Version: 6.00 Build 0)  -->
<!DOCTYPE svg PUBLIC "-//W3C//DTD SVG 1.1//EN" "http://www.w3.org/Graphics/SVG/1.1/DTD/svg11.dtd">
<svg version="1.1" id="Layer_1" xmlns="http://www.w3.org/2000/svg" xmlns:xlink="http://www.w3.org/1999/xlink" x="0px" y="0px"
	 width="1036px" height="500px" viewBox="0 0 1036 500" enable-background="new 0 0 1036 500" xml:space="preserve">
<g>
	<g>
		<path fill="#373435" d="M497,382.426c0,6.396-5.183,11.574-11.575,11.574H84.575C78.183,394,73,388.818,73,382.426V106.574
			C73,100.182,78.183,95,84.575,95h400.85C491.82,95,497,100.182,497,106.574V382.426z"/>
		<rect x="89" y="114" fill="#4B4B4D" width="393" height="249"/>
		<rect x="17" y="377" fill="#E6E7E8" width="534" height="22"/>
		<polygon fill="#A9ABAE" points="546.642,404 20.991,404 17.134,399 550.5,399 		"/>
		<circle fill="#7F7E7E" cx="285.196" cy="104.241" r="2.572"/>
	</g>
	
		<line opacity="0.3" fill="none" stroke="#000000" stroke-linecap="round" stroke-linejoin="round" stroke-miterlimit="10" enable-background="new    " x1="5.5" y1="404.5" x2="562.5" y2="404.5"/>
</g>
<g>
	<g>
		<path fill="#373435" d="M842,394.384c0,5.863-4.753,10.616-10.616,10.616H619.616c-5.863,0-10.616-4.753-10.616-10.616V105.616
			C609,99.753,613.753,95,619.616,95h211.768C837.247,95,842,99.753,842,105.616V394.384z"/>
		<rect x="631" y="123" fill="#4B4B4D" width="189" height="252"/>
		<circle fill="#4B4B4D" cx="726.657" cy="389.596" r="9.945"/>
		<circle fill="#7F7E7E" cx="726.658" cy="108.854" r="2.359"/>
	</g>
	
		<line opacity="0.3" fill="none" stroke="#000000" stroke-linecap="round" stroke-linejoin="round" stroke-miterlimit="10" enable-background="new    " x1="599.5" y1="404.5" x2="851.5" y2="404.5"/>
</g>
<g>
	<g>
		<path fill="#373435" d="M1020,393.385c0,5.862-4.753,10.615-10.616,10.615h-99.768c-5.863,0-10.616-4.753-10.616-10.615V157.616
			c0-5.863,4.753-10.616,10.616-10.616h99.768c5.863,0,10.616,4.753,10.616,10.616V393.385z"/>
		<rect x="906" y="183" fill="#4B4B4D" width="106" height="185"/>
		<circle fill="#4B4B4D" cx="959.439" cy="384.877" r="9.946"/>
		<circle fill="#7F7E7E" cx="959.439" cy="158.927" r="2.359"/>
		<path fill="#7F7E7E" d="M969,169.072c0,0.513-0.416,0.928-0.928,0.928h-19.146c-0.512,0-0.928-0.416-0.928-0.928v-0.144
			c0-0.513,0.416-0.928,0.928-0.928h19.146c0.512,0,0.928,0.416,0.928,0.928V169.072z"/>
	</g>
	
		<line opacity="0.3" fill="none" stroke="#000000" stroke-linecap="round" stroke-linejoin="round" stroke-miterlimit="10" enable-background="new    " x1="890.5" y1="404.5" x2="1028.5" y2="404.5"/>
</g>
</svg>
