<?xml version="1.0" encoding="utf-8"?>
<!-- Generator: Adobe Illustrator 16.2.1, SVG Export Plug-In . SVG Version: 6.00 Build 0)  -->
<!DOCTYPE svg PUBLIC "-//W3C//DTD SVG 1.1//EN" "http://www.w3.org/Graphics/SVG/1.1/DTD/svg11.dtd">
<svg version="1.1" id="Layer_1" xmlns="http://www.w3.org/2000/svg" xmlns:xlink="http://www.w3.org/1999/xlink" x="0px" y="0px"
	 width="120px" height="120px" viewBox="0 0 120 120" enable-background="new 0 0 120 120" xml:space="preserve">
<g>
	<path fill="#464646" d="M48.908,63.504H26.443l-5.922,18.799h-7.99l20.867-61.66h8.836L63.1,82.303h-8.271L48.908,63.504z
		 M46.934,57.206l-2.914-9.399c-2.162-6.861-4.135-13.629-6.109-20.772h-0.377c-1.973,7.144-3.947,13.911-6.109,20.772l-3.008,9.399
		H46.934z"/>
	<path fill="#464646" d="M72.127,80.705v-0.376c-2.256-1.41-4.043-3.854-4.043-7.426c0-3.854,2.633-6.861,4.982-8.46v-0.375
		c-3.008-2.444-5.922-6.862-5.922-12.313c0-9.964,7.896-16.261,17.201-16.261c2.537,0,4.793,0.47,6.486,1.127h15.885v5.922h-9.4
		c2.162,2.068,3.76,5.546,3.76,9.399c0,9.775-7.426,15.886-16.73,15.886c-2.256,0-4.793-0.564-6.861-1.599
		c-1.598,1.41-2.914,2.914-2.914,5.452c0,2.914,1.879,4.981,8.084,4.981h8.834c10.623,0,15.98,3.29,15.98,10.903
		c0,8.459-8.93,15.791-23.123,15.791c-11.186,0-18.893-4.418-18.893-12.313C65.453,87.19,67.99,83.524,72.127,80.705z M85.473,98
		c8.742,0,14.477-4.512,14.477-9.306c0-4.229-3.291-5.64-9.213-5.64h-7.895c-1.785,0-3.947-0.188-5.922-0.752
		c-3.289,2.35-4.699,5.076-4.699,7.707C72.221,94.898,77.201,98,85.473,98z M94.027,51.755c0-6.674-4.324-10.622-9.682-10.622
		s-9.682,3.948-9.682,10.622c0,6.673,4.418,10.903,9.682,10.903S94.027,58.428,94.027,51.755z"/>
</g>
</svg>
