<?xml version="1.0" encoding="utf-8"?>
<!-- Generator: Adobe Illustrator 21.0.0, SVG Export Plug-In . SVG Version: 6.00 Build 0)  -->
<!DOCTYPE svg PUBLIC "-//W3C//DTD SVG 1.1//EN" "http://www.w3.org/Graphics/SVG/1.1/DTD/svg11.dtd">
<svg version="1.1" id="Layer_1" xmlns="http://www.w3.org/2000/svg" xmlns:xlink="http://www.w3.org/1999/xlink" x="0px" y="0px"
	 viewBox="0 0 60 60" style="enable-background:new 0 0 60 60;" xml:space="preserve">
<style type="text/css">
	.st0{fill:#B3B3B3;}
</style>
<g>
	<path class="st0" d="M26.5,48.7c-1.9,0-3.7,1.5-3.7,5c0,3.2,1.4,5,3.6,5h0c1.4,0,3.6-1,3.6-5C30,50.6,28.6,48.7,26.5,48.7z
		 M26.4,56.9L26.4,56.9c-1,0-1.3-1.5-1.3-3.2c0-1.4,0.2-3.1,1.2-3.1c1,0,1.2,1.8,1.2,3.1C27.6,55.1,27.4,56.9,26.4,56.9z"/>
	<path class="st0" d="M8.2,45.3L5.3,58.6h2.3l0.6-3.2h2.5l0.6,3.2h2.4l-2.7-13.3H8.2z M8.5,53.4L9,50.6c0.1-0.8,0.3-2.1,0.5-3h0.1
		c0.1,0.9,0.3,2.2,0.5,3l0.5,2.9H8.5z"/>
	<path class="st0" d="M21.4,44.8h-2.3v4.9H19c-0.3-0.6-0.8-1-1.7-1c-1.6,0-3.1,1.6-3.1,5c0,2.8,1,5,3,5c0.9,0,1.7-0.6,2-1.3h0
		l0.1,1.1l2.1,0c0-0.9-0.1-1.9-0.1-2.8V44.8z M19.1,55.1c0,0.2-0.1,0.5-0.1,0.6c-0.2,0.8-0.7,1-1,1c-0.8,0-1.3-1.1-1.3-2.9
		c0-1.6,0.4-3,1.3-3c0.6,0,0.9,0.6,1,1.3c0,0.2,0.1,0.4,0.1,0.6V55.1z"/>
	<path class="st0" d="M35.8,48.7c-0.9,0-1.5,0.5-2,1.2h0v-5.1h-2.4l0,0.1v10.9c0,0.9-0.1,2-0.1,2.8h2.1l0.1-1.1h0.1
		c0.5,0.9,1.1,1.3,1.9,1.3c1.8,0,3.1-1.8,3.1-5.2C38.5,50.8,37.6,48.7,35.8,48.7z M34.8,56.7c-0.3,0-0.7-0.2-1-1
		c-0.1-0.2-0.1-0.4-0.1-0.6v-2.7c0-0.2,0-0.4,0.1-0.6c0.1-0.5,0.5-1,1-1c0.9,0,1.3,1.2,1.3,2.9C36.1,55.6,35.8,56.7,34.8,56.7z"/>
	<polygon class="st0" points="5,1.3 5,38.1 20.3,1.3 	"/>
	<polygon class="st0" points="26.2,30.7 29.1,38 35.5,38 25.7,14.8 19,30.7 	"/>
	<path class="st0" d="M43.3,48.7c-2.1,0-3.8,1.9-3.8,5.2c0,3,1.4,4.8,4,4.8c0.9,0,1.9-0.2,2.6-0.4l-0.3-1.7
		c-0.5,0.2-1.1,0.3-1.8,0.3c-1.1,0-2.1-0.6-2.1-2.3l4.6,0c0-0.3,0.1-0.6,0.1-1.3C46.5,50.4,45.4,48.7,43.3,48.7z M41.9,52.9
		c0-1,0.4-2.3,1.3-2.3c0.8,0,1.2,0.9,1.1,2.3H41.9z"/>
	<polygon class="st0" points="46.5,38.1 46.5,38.1 46.5,1.3 31.1,1.3 	"/>
	<g>
		<path class="st0" d="M53.5,6c-0.1-0.1-0.1-0.3-0.2-0.8c-0.1-0.5-0.3-0.7-0.5-0.8v0c0.3-0.1,0.6-0.4,0.6-0.8c0-0.3-0.1-0.5-0.3-0.7
			c-0.2-0.2-0.5-0.3-1.1-0.3c-0.4,0-0.6,0.1-1,0.1V6h0.6V4.6H52c0.4,0,0.6,0.2,0.7,0.5c0.1,0.4,0.1,0.7,0.2,0.8v0H53.5z M52,4.2
			h-0.3h0v-1c0.1,0,0.2,0,0.4,0c0.5,0,0.8,0.2,0.8,0.5C52.8,4,52.4,4.2,52,4.2z"/>
	</g>
	<path class="st0" d="M52.2,1.4L52.2,1.4c-1.6,0-2.9,1.3-2.9,2.9c0,1.6,1.3,2.9,2.9,2.9c1.6,0,2.9-1.3,2.9-2.9
		C55.1,2.7,53.8,1.4,52.2,1.4z M52.2,6.7c-1.3,0-2.3-1.1-2.3-2.4s1-2.4,2.3-2.4h0c1.3,0,2.3,1.1,2.3,2.4C54.5,5.7,53.5,6.8,52.2,6.7
		z"/>
</g>
</svg>
