<?xml version="1.0" encoding="utf-8"?>
<!-- Generator: Adobe Illustrator 21.0.0, SVG Export Plug-In . SVG Version: 6.00 Build 0)  -->
<!DOCTYPE svg PUBLIC "-//W3C//DTD SVG 1.1//EN" "http://www.w3.org/Graphics/SVG/1.1/DTD/svg11.dtd">
<svg version="1.1" id="Layer_1" xmlns="http://www.w3.org/2000/svg" xmlns:xlink="http://www.w3.org/1999/xlink" x="0px" y="0px"
	 viewBox="0 0 60 60" style="enable-background:new 0 0 60 60;" xml:space="preserve">
<style type="text/css">
	.st0{fill:#B3B3B3;}
</style>
<g>
	<path class="st0" d="M30,60c16.6,0,30-13.4,30-30S46.6,0,30,0S0,13.4,0,30S13.4,60,30,60z M4.8,30c0-3.4,0.7-6.7,2-9.8
		c1.3-3,3.1-5.7,5.4-8s5-4.1,8-5.4c3.1-1.3,6.4-2,9.8-2s6.7,0.7,9.8,2c3,1.3,5.7,3.1,8,5.4c2.3,2.3,4.1,5,5.4,8c1.3,3.1,2,6.4,2,9.8
		c0,3.4-0.7,6.7-2,9.8c-1.3,3-3.1,5.7-5.4,8c-2.3,2.3-5.2,4.1-8.2,5.4c-0.8,0.3-1.5,0.6-2.5,0.8v-4.5c0-2.4-0.6-4.1-2.2-5.2
		c1-0.1,2.1-0.2,2.9-0.4c0.8-0.2,1.8-0.4,2.8-0.8c0.9-0.3,1.8-0.7,2.6-1.2c0.8-0.5,1.5-1.1,2.2-1.8c0.7-0.7,1.3-1.6,1.8-2.5
		c0.5-0.9,0.8-2,1.1-3.3c0.3-1.3,0.4-2.7,0.4-4.3c0-3-1-5.6-3-7.7c0.9-2.3,0.8-4.9-0.3-7.6l-0.7-0.1c-0.5-0.1-1.4,0.2-2.7,0.6
		c-1.3,0.5-2.8,1.3-4.4,2.4c-2.3-0.6-4.7-1-7.2-1c-2.5,0-4.9,0.3-7.2,1c-1-0.7-2-1.3-2.9-1.7c-0.9-0.5-1.7-0.8-2.2-0.9
		c-0.6-0.2-1.1-0.3-1.6-0.3c-0.5,0-0.8,0-0.9,0c-0.1,0-0.2,0-0.3,0.1c-1.1,2.8-1.2,5.3-0.3,7.6c-2,2.1-3,4.7-3,7.7
		c0,1.6,0.1,3,0.4,4.3c0.3,1.3,0.6,2.4,1.1,3.3c0.5,0.9,1,1.8,1.7,2.5c0.7,0.7,1.4,1.3,2.2,1.8c0.8,0.5,1.6,0.9,2.5,1.2
		c0.9,0.3,1.8,0.6,2.7,0.8c0.8,0.2,1.9,0.3,2.9,0.4c-1.6,1.1-2.3,2.8-2.3,5.2v4.6c-2-0.3-1.9-0.6-2.7-0.9c-3-1.3-5.8-3.1-8.1-5.4
		c-2.3-2.3-4.2-5-5.4-8C5.5,36.7,4.8,33.4,4.8,30z"/>
</g>
</svg>
