<svg xmlns="http://www.w3.org/2000/svg" viewBox="0 0 144 306" enable-background="new 0 0 144 306"><style type="text/css">.st0{fill:#50C3D6;} .st1{fill:#8EE0ED;} .st2{fill:#4087A3;} .st3{fill:#48397C;} .st4{fill:#5F498E;} .st5{fill:#705EA5;} .st6{fill:#7E71B5;} .st7{fill:#3E2A75;} .st8{fill:#2C1954;}</style><g id="Tree_1_"><path class="st0" d="M72 216l-18-9-9 90 27 9z"/><path class="st1" d="M99 297l-27 9v-90l18-9z"/><path class="st2" d="M54 207l18-9v45l-21.4-2.2z"/><path class="st0" d="M90 207l-18-9v45l19.7-18z"/><path class="st3" d="M0 144l72 36-54-108z"/><path class="st4" d="M144 144l-18-72-54 108z"/><path class="st5" d="M72 90l54-18-54 108z"/><path class="st4" d="M18 72l54 18v90z"/><path class="st5" d="M18 72l54-72v90z"/><path class="st6" d="M126 72l-54 18v-90z"/><path class="st3" d="M144 144l-36 72-36-36z"/><path class="st7" d="M0 144l36 72 36-36z"/><path class="st8" d="M72 225l-36-9 36-36z"/><path class="st7" d="M108 216l-36 9v-45z"/></g></svg>