<?xml version="1.0" encoding="utf-8"?>
<!-- Generator: Adobe Illustrator 21.0.0, SVG Export Plug-In . SVG Version: 6.00 Build 0)  -->
<!DOCTYPE svg PUBLIC "-//W3C//DTD SVG 1.1//EN" "http://www.w3.org/Graphics/SVG/1.1/DTD/svg11.dtd">
<svg version="1.1" id="Layer_1" xmlns="http://www.w3.org/2000/svg" xmlns:xlink="http://www.w3.org/1999/xlink" x="0px" y="0px"
	 viewBox="0 0 62 50" style="enable-background:new 0 0 62 50;" xml:space="preserve">
<style type="text/css">
	.st0{fill:#B3B3B3;}
</style>
<g>
	<path class="st0" d="M42.8,0c-7,0-12.6,5.7-12.6,12.6c0,1,0.1,2,0.3,2.9C20,15,10.7,9.9,4.5,2.3c-1.1,1.9-1.7,4-1.7,6.3
		c0,4.4,2.2,8.2,5.6,10.5c-2.1-0.1-4-0.6-5.7-1.6c0,0.1,0,0.1,0,0.2c0,6.1,4.4,11.2,10.1,12.4c-1.1,0.3-2.2,0.4-3.3,0.4
		c-0.8,0-1.6-0.1-2.4-0.2c1.6,5,6.3,8.7,11.8,8.8c-4.3,3.4-9.8,5.4-15.7,5.4c-1,0-2-0.1-3-0.2C5.8,47.9,12.5,50,19.6,50
		c23.2,0,35.9-19.2,35.9-35.9c0-0.5,0-1.1,0-1.6c2.5-1.8,4.6-4,6.3-6.5c-2.3,1-4.7,1.7-7.2,2c2.6-1.6,4.6-4,5.5-7
		c-2.4,1.4-5.1,2.5-8,3.1C49.7,1.5,46.5,0,42.8,0z"/>
</g>
</svg>
