<svg xmlns="http://www.w3.org/2000/svg" viewBox="0 0 300 218" enable-background="new 0 0 300 218"><style type="text/css">.st0{fill:#50C3D6;} .st1{fill:#8EE0ED;} .st2{fill:#4087A3;} .st3{opacity:0.1;fill:#FFFFFF;} .st4{fill:#452F75;} .st5{fill:#2C1954;} .st6{fill:#5E4893;} .st7{fill:#5F498E;} .st8{fill:#462F77;} .st9{fill:#FFFFFF;} .st10{fill:#705EA5;}</style><path class="st0" d="M.7 156.5l95-142.5h108.6l95 142.5-81.5 47.5-67.8 13.6-67.8-13.6z"/><path class="st1" d="M95.7 14l-33.9-13.5-20.4 13.5 13.6 61.1-54.3 81.4 40.7-6.8 54.3 27.2 20.4 33.9-33.9-6.8 67.8 13.6v-6.9l-20.4-13.6 20.4-20.3v-94.9l20.4-40.7 33.9-27.2z"/><path class="st2" d="M299.3 156.5l-40.7-6.8-54.3 27.2-20.4 33.9 33.9-6.8z"/><path class="st3" d="M204.3 14l-33.9 27h-40.8l-33.9-27z"/><path class="st4" d="M258.6 149.7l-40.8-54.3-47.4-6.7-13.6 40.7 47.5 47.5z"/><path class="st5" d="M258.6 180.3v-30.6l-54.3 27.2 13.5 27.1z"/><path class="st4" d="M129.6 197.2l6.8-20.3h27.2l6.8 20.3-20.4 13.6z"/><path class="st6" d="M136.4 176.9l-6.8 20.2 20.4-20.2z"/><path class="st4" d="M238.2.5l-33.9 13.5-33.9 27.2 101.7 74.6-27.1-40.7 13.6-61.1z"/><path class="st5" d="M251.8 20.8l-13.6-6.8-20.4 20.4 17.5 26.1z"/><path class="st7" d="M95.7 14l-33.9-13.6-20.4 13.6 13.6 61.1-27.1 40.7 101.7-74.6 20.4 40.6 20.4-40.8h-40.8z"/><path class="st4" d="M48.2 20.8l13.6-6.8 20.4 20.4-17.5 26.1z"/><path class="st8" d="M41.4 180.3v-30.6l54.3 27.2-13.5 27.1z"/><path class="st7" d="M82.2 95.4l-40.8 54.3 54.3 27.2 47.5-47.5-13.6-40.7z"/><ellipse class="st9" cx="116.1" cy="115.8" rx="6.8" ry="6.8"/><ellipse class="st9" cx="183.9" cy="115.8" rx="6.8" ry="6.8"/><path class="st10" d="M204.3 14l-33.9 27h-40.8l-33.9-27z"/></svg>