<svg xmlns="http://www.w3.org/2000/svg" viewBox="0 0 174 392" enable-background="new 0 0 174 392"><style type="text/css">.st0{fill:#50C3D6;} .st1{fill:#8EE0ED;} .st2{fill:#452F75;} .st3{fill:#5F498E;} .st4{fill:#2C1954;} .st5{fill:#705EA5;} .st6{fill:#4087A3;} .st7{fill:#FFFFFF;}</style><path class="st0" d="M106.7 289l-20.4 102.8-20.5-103.4z"/><path class="st1" d="M106.7 289l-40.9-.6 20.7 59.7z"/><path class="st2" d="M55.4 303.6l16.1 18.7 30.7.4 14.5-18.2 57.2-204.8-87.6-99.5-85.3 100.1z"/><path class="st3" d="M44.3 151l84.9.2 44.7-51.5-87.6-99.5-85.3 100.1z"/><path class="st4" d="M102.2 322.7l27-171.5-42.9-151 87.6 99.5-57.2 204.8z"/><path class="st2" d="M129.2 151.2l-42.9-151 87.6 99.5z"/><path class="st3" d="M71.5 322.3l-27.2-171.3 42-150.8-85.3 100.1 54.4 203.3z"/><path class="st5" d="M44.3 151l42-150.8-85.3 100.1zM116.8 299.4"/><path class="st0" d="M109.5 313.6l39.7 12.9 21 28.9 2.3-83.9-44.4-43.6z"/><path class="st6" d="M170.2 355.4l-8-84-34.1-43.5 44.4 43.6z"/><path class="st0" d="M114.2 140.3l-56-.1 27.7-99.5z"/><path class="st1" d="M105.2 108.5l-47 31.7 27.7-99.5z"/><path class="st0" d="M63.4 312.9l-40.1 12.8-20.9 30.4-2.3-85 44.1-42.8z"/><path class="st1" d="M9.8 272.3l-7.4 83.8-2.3-85 44.1-42.8z"/><path class="st7" d="M0 391.6v-391.6"/></svg>