<svg xmlns="http://www.w3.org/2000/svg" viewBox="0 0 110 103" enable-background="new 0 0 110 103"><style type="text/css">.st0{fill:#3EBACE;} .st1{fill:#4087A3;} .st2{fill:#ACF4FC;} .st3{fill:#50C3D6;} .st4{fill:#377289;} .st5{fill:#8EE0ED;} .st6{fill:#40AECC;}</style><path class="st0" d="M87.4 61.9l-39.7-41-17.7 50.8z"/><path class="st1" d="M30 71.7l-30-33 18.7 56.3z"/><path class="st2" d="M91.3 8l-59-8 15.4 20.9z"/><path class="st3" d="M110 64.3l-32.3 38.7 9.7-41.1z"/><path class="st4" d="M18.7 95l59 8-47.7-31.3z"/><path class="st5" d="M0 38.7l32.3-38.7 15.4 20.9z"/><path class="st2" d="M87.4 61.9l22.6 2.4-18.7-56.3z"/><path class="st5" d="M47.7 20.9l39.7 41 3.9-53.9z"/><path class="st6" d="M77.7 103l-47.7-31.3 57.4-9.8zM47.7 20.9l-47.7 17.8 30 33z"/></svg>