<svg xmlns="http://www.w3.org/2000/svg" viewBox="0 0 206 206" enable-background="new 0 0 206 206"><style type="text/css">.st0{fill:#48397C;} .st1{fill:#705EA5;} .st2{fill:#5F498E;} .st3{fill:#1E1142;} .st4{fill:#2C1954;} .st5{fill:#7E71B5;} .st6{fill:#3E2A75;}</style><path class="st0" d="M123 58.6l-73.3 20.5 33.3 68.3z"/><path class="st1" d="M206 63.8l-83-5.2 33.3 68.3z"/><path class="st2" d="M83 147.4l73.3-20.5-33.3-68.3z"/><path class="st3" d="M83 147.4l-83-5.2 59.1 58.5z"/><path class="st4" d="M59.1 200.7l83.1 5.3-59.2-58.6z"/><path class="st1" d="M146.9 5.3l-83.1-5.3 59.2 58.6z"/><path class="st0" d="M63.8 0l-58.5 59.1 44.4 20z"/><path class="st5" d="M206 63.8l-5.3 83.1-44.4-20z"/><path class="st1" d="M142.2 206l58.5-59.1-44.4-20z"/><path class="st6" d="M0 142.2l5.3-83.1 44.4 20z"/><path class="st5" d="M123 58.6l83 5.2-59.1-58.5z"/><path class="st2" d="M49.7 79.1l73.3-20.5-59.2-58.6z"/><path class="st4" d="M0 142.2l83 5.2-33.3-68.3z"/><path class="st0" d="M142.2 206l-59.2-58.6 73.3-20.5z"/></svg>