<svg width="12px" height="19px" viewBox="0 0 12 19" version="1.1" xmlns="http://www.w3.org/2000/svg" xmlns:xlink="http://www.w3.org/1999/xlink">
    <path d="M1.00247329,0 C0.448822582,0 0,0.450925395 0,0.994771168 L0,18.0052288 C0,18.5546258 0.455760956,19 1.00247329,19 L10.9975267,19 C11.5511774,19 12,18.5490746 12,18.0052288 L12,0.994771168 C12,0.445374222 11.544239,0 10.9975267,0 L1.00247329,0 Z M2,2 L10,2 L10,15 L2,15 L2,2 L2,2 Z M7,16.5172222 C6.98666667,17.0708611 6.82666667,17.0555556 6.66666667,17.0555556 L5.36666667,17.0555556 C5.16666667,17.0555556 5.01333333,17.0555556 5,16.5430833 C5,16.0316667 5.18666667,16.0100278 5.36666667,16 L6.66666667,16 C6.84,16.0052778 6.98,16.0153056 7,16.5172222 L7,16.5172222 Z M7,16.5172222"></path>
</svg>