<?xml version="1.0" encoding="utf-8"?>
<!DOCTYPE svg PUBLIC "-//W3C//DTD SVG 1.1//EN" "http://www.w3.org/Graphics/SVG/1.1/DTD/svg11.dtd">
<svg version="1.1" id="Layer_1" xmlns="http://www.w3.org/2000/svg" xmlns:xlink="http://www.w3.org/1999/xlink" x="0px" y="0px"
	 width="42px" height="42px" viewBox="0 0 42 42" enable-background="new 0 0 42 42" xml:space="preserve">
<path d="M15.049,21.084c0,3.331,2.745,6.064,6.07,6.064c3.376,0,6.118-2.748,6.118-6.064c0-3.379-2.742-6.118-6.118-6.118
	C17.794,14.966,15.049,17.705,15.049,21.084z M23.439,32.875c6.812-1.498,17.291-10.428,17.291-10.428s-7.789-12.095-18.216-13.39
	c-0.592-0.068-2.641-0.085-3.028-0.051C9.41,9.982,1.27,22.832,1.27,22.832s8.844,8.63,17.157,10.024
	C19.402,33.059,22.43,33.059,23.439,32.875z M10.992,21.048c0-5.213,4.492-9.435,10.008-9.435s10.008,4.222,10.008,9.435
	c0,5.233-4.492,9.455-10.008,9.455S10.992,26.281,10.992,21.048z"/>
</svg>
