<svg width="41px" height="38px" viewBox="0 0 41 38" version="1.1" xmlns="http://www.w3.org/2000/svg" xmlns:xlink="http://www.w3.org/1999/xlink">
    <path d="M18,33 L10,35 C9.52,35.04 9,35.52 9,36 L9,37 C9,37.5 9.47,38 10,38 L30,38 C30.43,38 31,37.59 31,37 L31,36 C30.98,35.48 30.45,35.02 30,35 L22,33 L18,33 L18,33 Z M37,32 C39.59,32 40,31.471 40,29 L40,3 C40,0.609 39.45,0 37,0 L3,0 C0.57,0 0,0.54 0,3 L0,29 C0,31.51 0.53,32 3,32 L16.4,32 L23.6,32 L37,32 L37,32 Z M35,5 L35,27 L5,27 L5,5 L35,5 L35,5 Z M35,5"></path>
</svg>