<?xml version="1.0" encoding="utf-8"?>
<!-- Generator: Adobe Illustrator 16.2.1, SVG Export Plug-In . SVG Version: 6.00 Build 0)  -->
<!DOCTYPE svg PUBLIC "-//W3C//DTD SVG 1.1//EN" "http://www.w3.org/Graphics/SVG/1.1/DTD/svg11.dtd">
<svg version="1.1" id="Layer_1" xmlns="http://www.w3.org/2000/svg" xmlns:xlink="http://www.w3.org/1999/xlink" x="0px" y="0px"
	 width="120px" height="120px" viewBox="0 0 120 120" enable-background="new 0 0 120 120" xml:space="preserve">
<g>
	<g>
		<g>
			<path fill-rule="evenodd" clip-rule="evenodd" fill="#464646" d="M12.276,17.698c0.121,0.49,0.322,0.948,0.586,1.362l-0.737,0.74
				c-0.331,0.33-0.327,0.525-0.036,0.818l0.719,0.719c0.294,0.294,0.494,0.288,0.818-0.037l0.773-0.776
				c0.364,0.21,0.758,0.371,1.177,0.473v0.946c0,0.47,0.142,0.605,0.551,0.605h1.019c0.415,0,0.553-0.145,0.553-0.605v-0.946
				c0.419-0.102,0.812-0.263,1.176-0.473l0.791,0.795c0.329,0.324,0.526,0.33,0.818,0.039l0.724-0.721
				c0.287-0.289,0.293-0.486-0.04-0.82l-0.758-0.757c0.267-0.414,0.467-0.872,0.587-1.362h1.001c0.416,0,0.553-0.146,0.553-0.607
				v-0.909c0-0.449-0.119-0.607-0.553-0.607h-1.001c-0.102-0.418-0.263-0.812-0.472-1.176l0.721-0.719
				c0.318-0.318,0.346-0.516,0.04-0.819l-0.722-0.722c-0.288-0.287-0.495-0.284-0.818,0.041L19.06,12.86
				c-0.412-0.262-0.87-0.463-1.361-0.584v-0.946c0-0.45-0.119-0.607-0.553-0.607h-1.019c-0.409,0-0.551,0.148-0.551,0.607v0.946
				c-0.491,0.121-0.949,0.322-1.363,0.584l-0.684-0.681c-0.325-0.324-0.531-0.328-0.819-0.041l-0.723,0.722
				c-0.305,0.304-0.278,0.501,0.04,0.819l0.719,0.719c-0.206,0.364-0.367,0.758-0.47,1.176h-1c-0.411,0-0.552,0.149-0.552,0.607
				v0.909c0,0.47,0.141,0.607,0.552,0.607H12.276z M14.902,16.636c0-0.958,0.776-1.733,1.734-1.733s1.734,0.775,1.734,1.733
				c0,0.959-0.776,1.735-1.734,1.735S14.902,17.596,14.902,16.636z"/>
			<path fill-rule="evenodd" clip-rule="evenodd" fill="#464646" d="M32.33,34.451v7.883c0,0.766,0.154,0.91,0.909,0.91h10.31
				c0.749,0,0.91-0.138,0.91-0.91v-6.367c0-0.745-0.143-0.91-0.91-0.91h-5.154v-0.606c0-0.758-0.158-0.91-0.909-0.91h-4.246
				C32.487,33.542,32.33,33.673,32.33,34.451z"/>
			<path fill-rule="evenodd" clip-rule="evenodd" fill="#464646" d="M55.755,58.414l1.504-0.008c0.079-1.449,0.861-2.98,2.741-2.98
				c1.812,0,2.629,1.542,2.73,3.058h1.515C64.217,55.754,62.83,53.96,60,53.934C57.188,53.909,55.755,55.879,55.755,58.414z
				 M54.845,59.93v5.085c0,0.755,0.171,1.048,0.91,1.048h3.639c-0.001,0-0.001,0,0,0c0.046,0,4.875,0,4.875,0
				c0.79,0,0.887-0.281,0.887-1.048V59.93c0-0.746-0.142-0.84-0.91-0.84h-8.49C55.024,59.09,54.845,59.225,54.845,59.93z
				 M60.964,61.982c0,0.428-0.275,0.857-0.657,0.986l0.603,1.578h-1.818l0.603-1.578c-0.382-0.129-0.657-0.523-0.657-0.95
				c0-0.535,0.431-0.983,0.964-0.983S60.964,61.449,60.964,61.982z"/>
			<path fill-rule="evenodd" clip-rule="evenodd" fill="#464646" d="M75.543,77.36v8.187c0,0.764,0.152,0.91,0.907,0.91h10.311
				c0.748,0,0.909-0.14,0.909-0.91V77.36c0-0.745-0.143-0.91-0.909-0.91H76.45C75.699,76.45,75.543,76.582,75.543,77.36z
				 M86.241,84.334h-9.267c1.015-1.477,2.815-3.939,3.273-3.939c0.441,0,1.946,1.989,2.625,2.691c0,0,0.873-1.168,1.331-1.168
				C84.671,81.918,86.226,84.322,86.241,84.334z M83.52,79.18c0-0.619,0.499-1.117,1.118-1.117s1.118,0.498,1.118,1.117
				s-0.499,1.119-1.118,1.119S83.52,79.799,83.52,79.18z"/>
			<path fill-rule="evenodd" clip-rule="evenodd" fill="#464646" d="M101.365,103.842c0,1.019,0.827,1.847,1.846,1.847
				c1.02,0,1.848-0.828,1.848-1.847s-0.828-1.848-1.848-1.848C102.192,101.994,101.365,102.823,101.365,103.842z M98.056,108.062
				h10.311c0.798,0,0.909-0.111,0.909-0.91v-6.974c0-0.745-0.114-0.909-0.909-0.909h-3.032c0-0.779-0.128-0.91-0.91-0.91h-2.425
				c-0.772,0-0.911,0.145-0.911,0.91h-3.032c-0.781,0-0.909,0.21-0.909,0.909v6.974C97.146,107.941,97.263,108.062,98.056,108.062z
				 M100.373,103.842c0-1.567,1.271-2.837,2.838-2.837c1.568,0,2.838,1.27,2.838,2.837c0,1.566-1.27,2.838-2.838,2.838
				C101.645,106.68,100.373,105.408,100.373,103.842z"/>
			<path fill-rule="evenodd" clip-rule="evenodd" fill="#464646" d="M37.788,64.244l-2.426,0.606
				c-0.146,0.012-0.304,0.158-0.304,0.303v0.305c0,0.151,0.143,0.303,0.304,0.303h6.064c0.13,0,0.304-0.125,0.304-0.303v-0.305
				c-0.007-0.157-0.168-0.296-0.304-0.303L39,64.244H37.788z M43.549,63.94c0.785,0,0.91-0.16,0.91-0.91v-7.883
				c0-0.724-0.168-0.909-0.91-0.909h-10.31c-0.736,0-0.909,0.165-0.909,0.909v7.883c0,0.762,0.16,0.91,0.909,0.91h4.063h2.183
				H43.549z M42.942,55.754v6.671h-9.097v-6.671H42.942z"/>
			<path fill-rule="evenodd" clip-rule="evenodd" fill="#464646" d="M64.852,76.45c0-0.721-0.151-0.909-0.91-0.909h-7.579
				c-0.759,0-0.91,0.171-0.91,0.909v10.31c0,0.731,0.17,0.91,0.91,0.91h7.579c0.749,0,0.91-0.171,0.91-0.91V76.45z M56.968,77.058
				h6.368v8.186h-6.368V77.058z M61.213,86.451c-0.006,0.317-0.079,0.309-0.152,0.309h-1.804c-0.091,0-0.16,0-0.166-0.293
				c0-0.294,0.084-0.308,0.166-0.313h1.804C61.141,86.156,61.203,86.164,61.213,86.451z"/>
			<path fill-rule="evenodd" clip-rule="evenodd" fill="#464646" d="M84.941,98.708c0-0.784-0.169-0.955-0.909-0.955h-5.155
				c-0.748,0-0.909,0.161-0.909,0.955v9.051c0,0.74,0.169,0.91,0.909,0.91h5.155c0.758,0,0.909-0.17,0.909-0.91V98.708z
				 M79.482,99.27h3.943v7.276h-3.943V99.27z M81.909,107.45c-0.007,0.318-0.08,0.309-0.151,0.309h-0.592
				c-0.092,0-0.16,0-0.166-0.294c0-0.293,0.084-0.307,0.166-0.312h0.592C81.836,107.157,81.899,107.163,81.909,107.45z"/>
			<path fill-rule="evenodd" clip-rule="evenodd" fill="#464646" d="M108.972,17.394v-0.91c0-0.448-0.13-0.606-0.605-0.606H98.056
				c-0.447,0-0.605,0.149-0.605,0.606v0.91c0,0.47,0.158,0.606,0.605,0.606h10.311C108.824,18,108.972,17.854,108.972,17.394z"/>
			<path fill-rule="evenodd" clip-rule="evenodd" fill="#464646" d="M65.761,103.515v-0.909c0-0.449-0.13-0.606-0.605-0.606h-3.942
				v-3.942c0-0.448-0.149-0.607-0.607-0.607h-0.909c-0.47,0-0.605,0.159-0.605,0.607v3.942h-4.246c-0.448,0-0.605,0.148-0.605,0.606
				v0.909c0,0.469,0.157,0.605,0.605,0.605h4.246v4.246c0,0.458,0.145,0.605,0.605,0.605h0.909c0.448,0,0.607-0.13,0.607-0.605
				v-4.246h3.942C65.613,104.12,65.761,103.976,65.761,103.515z"/>
			<path fill-rule="evenodd" clip-rule="evenodd" fill="#464646" d="M38.395,83.3l3.141,3.215c0.315,0.325,0.521,0.329,0.842,0
				l0.63-0.646c0.309-0.316,0.328-0.522,0-0.861l-3.326-3.402l3.326-3.404c0.312-0.318,0.317-0.536,0-0.859l-0.63-0.646
				c-0.328-0.334-0.53-0.319-0.842,0l-3.141,3.216l-3.14-3.216c-0.312-0.319-0.515-0.334-0.842,0l-0.63,0.646
				c-0.318,0.323-0.312,0.541,0,0.859l3.325,3.404l-3.325,3.402c-0.329,0.339-0.312,0.545,0,0.861l0.63,0.646
				c0.317,0.329,0.523,0.325,0.842,0L38.395,83.3z"/>
			<path fill-rule="evenodd" clip-rule="evenodd" fill="#464646" d="M21.955,55.938l-0.729-0.585
				c-0.356-0.288-0.565-0.286-0.871,0.094l-5.286,6.522l-2.459-2.043c-0.339-0.285-0.552-0.271-0.83,0.078l-0.562,0.73
				c-0.285,0.358-0.248,0.562,0.088,0.844l3.506,2.899c0.36,0.304,0.562,0.272,0.843-0.066l6.392-7.599
				C22.348,56.451,22.329,56.235,21.955,55.938z"/>
			<path fill-rule="evenodd" clip-rule="evenodd" fill="#464646" d="M20.427,79.443c0-2.133-1.64-3.927-3.787-3.927
				s-3.792,1.8-3.792,3.933c0,0.703,0.097,1.247,0.431,1.854h-0.006l3.243,6.235c0.121,0.167,0.248-0.001,0.248-0.001
				c-0.109,0.163,3.243-6.234,3.243-6.234h-0.002C20.334,80.696,20.427,80.146,20.427,79.443z M14.894,79.305
				c0-1.005,0.782-1.818,1.746-1.818s1.746,0.813,1.746,1.818c0,1.008-0.782,1.821-1.746,1.821S14.894,80.312,14.894,79.305z"/>
			<g>
				<path fill-rule="evenodd" clip-rule="evenodd" fill="#464646" d="M38.395,97.146c0.327,0,1.559,3.734,1.881,3.98
					c0.32,0.246,4.081,0.319,4.181,0.648c0.103,0.328-2.899,2.709-3.021,3.108c-0.123,0.396,0.971,4.174,0.706,4.379
					c-0.266,0.204-3.35-2.061-3.747-2.061c-0.398,0-3.482,2.265-3.747,2.061c-0.266-0.205,0.829-3.982,0.705-4.379
					c-0.12-0.399-3.122-2.78-3.02-3.108c0.1-0.329,3.859-0.402,4.181-0.648S38.064,97.146,38.395,97.146z"/>
			</g>
			<path fill-rule="evenodd" clip-rule="evenodd" fill="#464646" d="M80.396,17.825c-0.003-0.007-0.544-0.791-0.747-1.057
				c-0.42-0.556-0.637-1.336-0.687-1.397c0.591-0.411,1.742-0.927,1.809-1.668c0.081-0.958-1.542-2.96-1.852-2.979
				c-0.852,0.008-2.41,1.451-2.595,1.885c-0.345,0.902-0.174,1.739,0.417,2.952c0.75,1.804,3.542,5.227,5.138,6.3
				c1.056,0.812,1.829,1.129,2.75,0.937c0.429-0.08,1.976-1.351,2.13-2.209c0.038-0.317-1.759-2.428-2.69-2.512
				c-0.722-0.067-1.414,1.015-1.91,1.542c-0.05-0.063-0.473-0.393-0.928-0.917C81.008,18.451,80.654,18.118,80.396,17.825z"/>
			<path fill-rule="evenodd" clip-rule="evenodd" fill="#464646" d="M97.146,38.242c0-2.762,3.134-5.004,6.064-5.004
				c2.933,0,6.064,2.242,6.064,5.004s-3.132,5.002-6.064,5.002C100.28,43.244,97.146,41.003,97.146,38.242z"/>
			<path fill-rule="evenodd" clip-rule="evenodd" fill="#464646" d="M100.767,60.758c-0.12,0.223-0.049,0.409,0.2,0.658l0.231,0.23
				c0.252,0.252,0.439,0.32,0.658,0.199c0.078-0.043,0.163-0.109,0.254-0.199l1.371-1.371c0.257-0.222,0.521-0.131,0.769,0.118
				c0.256,0.252,0.41,0.551,0.18,0.825l-2.055,2.056c-0.732,0.731-1.838,0.903-2.742,0c-0.812-0.814-0.73-2.011,0-2.741l4.111-4.113
				c0.731-0.731,1.813-0.928,2.741,0c0.925,0.925,0.788,1.954,0.228,2.514c-0.355,0.356-0.315,0.77-0.093,1.014l0.228,0.227
				c0.345,0.342,0.66,0.236,0.999-0.108c1.165-1.395,1.094-3.477-0.218-4.789c-1.389-1.386-3.64-1.386-5.027,0l-4.112,4.113
				c-1.386,1.388-1.386,3.637,0,5.027c1.39,1.386,3.64,1.386,5.028,0l2.055-2.057c0.623-0.943,0.535-2.168-0.293-2.995
				c-0.825-0.826-2.002-0.845-2.941-0.234l-1.371,1.37C100.876,60.593,100.81,60.679,100.767,60.758z"/>
			<path fill-rule="evenodd" clip-rule="evenodd" fill="#464646" d="M82.818,42.044c-0.67-0.664-1.756-0.664-2.426,0l1.213,1.2
				L82.818,42.044z M85.243,39.644c-2.01-1.991-5.266-1.991-7.275,0l1.213,1.199c1.34-1.324,3.511-1.324,4.852,0L85.243,39.644z
				 M87.67,37.241c-3.351-3.314-8.778-3.314-12.127,0l1.211,1.201c2.681-2.653,7.022-2.653,9.703,0L87.67,37.241z"/>
			<path fill-rule="evenodd" clip-rule="evenodd" fill="#464646" d="M65.761,13.755v-0.302c0-0.446-0.146-0.606-0.605-0.606H54.845
				c-0.463,0-0.605,0.157-0.605,0.606v0.302c0,0.47,0.157,0.608,0.605,0.608h10.311C65.609,14.363,65.761,14.216,65.761,13.755z
				 M65.761,17.091v-0.304c0-0.444-0.146-0.605-0.605-0.605H54.845c-0.463,0-0.605,0.158-0.605,0.605v0.304
				c0,0.47,0.157,0.607,0.605,0.607h10.311C65.609,17.698,65.761,17.552,65.761,17.091z M65.761,20.427v-0.304
				c0-0.445-0.146-0.606-0.605-0.606H54.845c-0.463,0-0.605,0.158-0.605,0.606v0.304c0,0.47,0.157,0.606,0.605,0.606h10.311
				C65.609,21.033,65.761,20.887,65.761,20.427z"/>
			<path fill-rule="evenodd" clip-rule="evenodd" fill="#464646" d="M14.362,99.885v-1.212c0-0.759-0.161-0.91-0.909-0.91
				l-1.213-0.01c-0.722,0-0.91,0.171-0.91,0.91v1.213c0,0.749,0.152,0.909,0.91,0.909h1.213
				C14.212,100.785,14.362,100.634,14.362,99.885z M14.362,103.827v-1.213c0-0.759-0.161-0.91-0.909-0.91l-1.213-0.009
				c-0.722,0-0.91,0.17-0.91,0.91v1.213c0,0.749,0.152,0.909,0.91,0.909h1.213C14.212,104.728,14.362,104.575,14.362,103.827z
				 M14.362,107.769v-1.213c0-0.758-0.161-0.909-0.909-0.909l-1.213-0.01c-0.722,0-0.91,0.171-0.91,0.909v1.213
				c0,0.75,0.152,0.91,0.91,0.91h1.213C14.212,108.669,14.362,108.517,14.362,107.769z M18.305,99.885v-1.212
				c0-0.759-0.161-0.91-0.91-0.91l-1.213-0.01c-0.721,0-0.909,0.171-0.909,0.91v1.213c0,0.749,0.151,0.909,0.909,0.909h1.213
				C18.152,100.785,18.305,100.634,18.305,99.885z M18.305,103.827v-1.213c0-0.759-0.161-0.91-0.91-0.91l-1.213-0.009
				c-0.721,0-0.909,0.17-0.909,0.91v1.213c0,0.749,0.151,0.909,0.909,0.909h1.213C18.152,104.728,18.305,104.575,18.305,103.827z
				 M18.305,107.769v-1.213c0-0.758-0.161-0.909-0.91-0.909l-1.213-0.01c-0.721,0-0.909,0.171-0.909,0.909v1.213
				c0,0.75,0.151,0.91,0.909,0.91h1.213C18.152,108.669,18.305,108.517,18.305,107.769z M22.246,99.885v-1.212
				c0-0.759-0.161-0.91-0.909-0.91l-1.214-0.01c-0.721,0-0.909,0.171-0.909,0.91v1.213c0,0.749,0.151,0.909,0.909,0.909h1.214
				C22.095,100.785,22.246,100.634,22.246,99.885z M22.246,103.827v-1.213c0-0.759-0.161-0.91-0.909-0.91l-1.214-0.009
				c-0.721,0-0.909,0.17-0.909,0.91v1.213c0,0.749,0.151,0.909,0.909,0.909h1.214C22.095,104.728,22.246,104.575,22.246,103.827z
				 M22.246,107.769v-1.213c0-0.758-0.161-0.909-0.909-0.909l-1.214-0.01c-0.721,0-0.909,0.171-0.909,0.909v1.213
				c0,0.75,0.151,0.91,0.909,0.91h1.214C22.095,108.669,22.246,108.517,22.246,107.769z"/>
			<path fill-rule="evenodd" clip-rule="evenodd" fill="#464646" d="M38.665,15.172l1.346,1.345c0.342,0.344,0.475,0.334,0.81,0
				l2.022-2.021l1.616,1.62v-5.392h-5.393l1.62,1.617l-2.021,2.022C38.336,14.689,38.327,14.835,38.665,15.172z M38.124,18.405
				l-1.346-1.347c-0.343-0.343-0.477-0.333-0.811,0l-2.021,2.021l-1.616-1.617v5.39h5.391l-1.619-1.616l2.022-2.021
				C38.452,18.886,38.461,18.741,38.124,18.405z"/>
			<path fill-rule="evenodd" clip-rule="evenodd" fill="#464646" d="M54.187,42.853l1.35,1.35c0.345,0.345,0.479,0.335,0.812,0
				l1.727-1.723l1.621,1.623v-5.406h-5.409l1.623,1.621l-1.724,1.724C53.857,42.37,53.848,42.517,54.187,42.853z M65.813,33.934
				l-1.351-1.35c-0.344-0.344-0.479-0.334-0.812,0l-1.727,1.724l-1.621-1.623v5.405h5.41l-1.624-1.621l1.724-1.724
				C66.143,34.417,66.152,34.27,65.813,33.934z"/>
			<path fill-rule="evenodd" clip-rule="evenodd" fill="#464646" d="M81.672,63.334l0.003-0.874c-1.562,0-2.826-1.258-2.826-2.81
				c0-1.547,1.26-2.802,2.812-2.812l0.007-0.776c-3.184,0-5.822,4.168-5.822,4.168S79.02,63.334,81.672,63.334z M84.505,59.65
				c0,1.552-1.268,2.81-2.83,2.81l-0.003,0.874c2.654,0,5.998-3.214,5.998-3.214s-2.612-4.062-6.003-4.062l-0.007,0.781
				C83.222,56.838,84.505,58.097,84.505,59.65z M81.039,59.646c0,0.349,0.284,0.634,0.636,0.634c0.353,0,0.638-0.285,0.638-0.634
				c0-0.349-0.285-0.634-0.638-0.634C81.323,59.013,81.039,59.298,81.039,59.646z"/>
			<path fill-rule="evenodd" clip-rule="evenodd" fill="#464646" d="M98.056,81.605v5.154c0,0.756,0.171,0.91,0.911,0.91h8.489
				c0.792,0,0.91-0.142,0.91-0.91v-5.154c0-0.746-0.14-0.909-0.91-0.909h-8.489C98.235,80.696,98.056,80.899,98.056,81.605z
				 M104.176,83.729c0,0.428-0.276,0.787-0.658,0.916l0.603,1.509h-1.818l0.604-1.509c-0.382-0.129-0.658-0.488-0.658-0.916
				c0-0.533,0.431-0.964,0.964-0.964C103.745,82.765,104.176,83.195,104.176,83.729z M98.967,80.09l1.641-0.01
				c0.077-1.449,0.738-2.92,2.618-2.92c1.383,0,2.078,0.831,2.5,1.816l1.445-1.019c-0.588-1.403-1.948-2.398-3.884-2.417
				C100.476,75.515,98.967,77.555,98.967,80.09z"/>
			<path fill-rule="evenodd" clip-rule="evenodd" fill="#464646" d="M19.82,38.09v1.82l3.032-3.032l-3.032-3.031v1.516
				c-4.64,0.029-4.548,4.547-4.548,4.547S16.925,37.639,19.82,38.09z M17.395,34.149h-5.761c-0.746,0-0.909,0.212-0.909,0.909v7.277
				c0,0.757,0.182,0.91,0.909,0.91h8.793c0.731,0,0.91-0.136,0.91-0.91V39.91l-1.517,1.301v0.518h-7.58v-6.064h3.639L17.395,34.149z
				"/>
		</g>
	</g>
</g>
</svg>
