<?xml version="1.0" encoding="utf-8"?>
<!-- Generator: Adobe Illustrator 16.2.1, SVG Export Plug-In . SVG Version: 6.00 Build 0)  -->
<!DOCTYPE svg PUBLIC "-//W3C//DTD SVG 1.1//EN" "http://www.w3.org/Graphics/SVG/1.1/DTD/svg11.dtd">
<svg version="1.1" id="Layer_1" xmlns="http://www.w3.org/2000/svg" xmlns:xlink="http://www.w3.org/1999/xlink" x="0px" y="0px"
	 width="486px" height="244px" viewBox="0 0 486 244" enable-background="new 0 0 486 244" xml:space="preserve">
<g>
	<polygon fill="#50AC45" points="0,183.195 122.232,107.102 242.922,138.021 361.555,40.033 486,0.429 486,236 0,236 	"/>
	<polygon fill="#F9921F" points="0,196.309 120.932,143.926 243.352,187.022 366.086,98.398 486,38.798 486,237 0,237 	"/>
	<polygon fill="#428CC2" points="0,215.226 120.38,192.553 241.794,222.571 363.479,157.058 486,160.207 486,244 0,244 	"/>
</g>
<g opacity="0.1">
	<line fill="none" stroke="#FFFFFF" stroke-miterlimit="10" x1="122.5" y1="244" x2="122.5" y2="0"/>
	<line fill="none" stroke="#FFFFFF" stroke-miterlimit="10" x1="0" y1="40.5" x2="486" y2="40.5"/>
	<line fill="none" stroke="#FFFFFF" stroke-miterlimit="10" x1="0" y1="200.5" x2="486" y2="200.5"/>
	<line fill="none" stroke="#FFFFFF" stroke-miterlimit="10" x1="0" y1="160.5" x2="486" y2="160.5"/>
	<line fill="none" stroke="#FFFFFF" stroke-miterlimit="10" x1="0" y1="120.5" x2="486" y2="120.5"/>
	<line fill="none" stroke="#FFFFFF" stroke-miterlimit="10" x1="0" y1="80.5" x2="486" y2="80.5"/>
	<line fill="none" stroke="#FFFFFF" stroke-miterlimit="10" x1="242.5" y1="244" x2="242.5" y2="0"/>
	<line fill="none" stroke="#FFFFFF" stroke-miterlimit="10" x1="362.5" y1="244" x2="362.5" y2="0"/>
</g>
</svg>
